<svg id="Behance_Bt" xmlns="http://www.w3.org/2000/svg" width="45" height="45" viewBox="0 0 45 45">
  <path id="Trazado_4" data-name="Trazado 4" d="M-89.212,695.49a3.009,3.009,0,0,0-2.567,1.915.64.64,0,0,0,.6.862h4.318a.638.638,0,0,0,.631-.732A2.432,2.432,0,0,0-89.212,695.49Z" transform="translate(119.481 -674.942)" fill="#dd5957"/>
  <path id="Trazado_5" data-name="Trazado 5" d="M-101.886,698.441a11.461,11.461,0,0,0-5.518-.161.647.647,0,0,0-.574.632c-.073,1.227-.033,1.52-.073,2.7a1.131,1.131,0,0,0,.97,1.193,17.252,17.252,0,0,0,3.73.232c1.819-.131,2.807-.822,2.911-1.789C-100.3,699.927-100.531,698.906-101.886,698.441Z" transform="translate(119.481 -674.942)" fill="#dd5957"/>
  <path id="Trazado_6" data-name="Trazado 6" d="M-107.48,695.624c1.119-.051,3.4-.158,4.088-.23a3.094,3.094,0,0,0,2.212-.993,1.979,1.979,0,0,0-.753-2.625,3.473,3.473,0,0,0-1.431-.381,33.376,33.376,0,0,0-4.47.252.524.524,0,0,0-.465.553c.043.712.114,2.037.155,2.822A.637.637,0,0,0-107.48,695.624Z" transform="translate(119.481 -674.942)" fill="#dd5957"/>
  <path id="Trazado_7" data-name="Trazado 7" d="M-76.526,685.146c-1.32-6.461-4.275-8.779-9.2-9.518a70.783,70.783,0,0,0-21.471.277c-6.925,1.294-9.6,4.5-10.782,9.981-.86,3.973-2.447,14.814-.744,22.764,1.325,6.184,4.927,9.026,12.177,10.505,6.379,1.3,16.275.966,22.029-.832,6.506-2.033,10.038-4.99,10.038-12.568A90.565,90.565,0,0,0-76.526,685.146Zm-20.387,17.237c-.364,2.264-2.439,3.59-5.025,3.706a36.044,36.044,0,0,1-7.8-.439,1.983,1.983,0,0,1-1.649-1.957c0-4.519.017-8.31.02-12.943a1.943,1.943,0,0,1,1.62-1.917,48.63,48.63,0,0,1,6.041-.681c3.133-.111,5.539,1.254,6.105,3.76a3.973,3.973,0,0,1-1.262,4.28.524.524,0,0,0,.033.846C-97.029,698.254-96.532,700.013-96.913,702.383Zm3.757-12.176a.883.883,0,0,1,.871-.743h5.827a.882.882,0,0,1,.882.883.883.883,0,0,1-.875.882c-2.068.015-4.1.071-6.13-.044C-93.317,691.143-93.236,690.7-93.156,690.207Zm10.567,9.866a.636.636,0,0,1-.637.6h-8.165a.638.638,0,0,0-.625.759,2.747,2.747,0,0,0,1.311,2.024,2.9,2.9,0,0,0,3.555-.33c1.092-1.1,2.209-.8,3.574-.7a.638.638,0,0,1,.513.946,6.813,6.813,0,0,1-.855,1.29,7.166,7.166,0,0,1-10.282-.205c-2.125-2.46-2.086-7.342.339-9.727,2.387-2.346,6.944-3,9.572-.087A6.9,6.9,0,0,1-82.589,700.073Z" transform="translate(119.481 -674.942)" fill="#dd5957"/>
</svg>
