<svg xmlns="http://www.w3.org/2000/svg" width="45" height="44.999" viewBox="0 0 45 44.999">
  <path id="Facebook_Bt" d="M-75.868,616.767c-1.275-6.875-4.1-9.51-9.166-10.693-7.878-1.839-19.533-2.008-24.635-1.013a11.652,11.652,0,0,0-9.612,10.987,105.847,105.847,0,0,0,.732,20.4c.873,6.652,2.645,12.026,10.026,12.753a64.454,64.454,0,0,0,11.269.012c-.022-3.047-.171-16.331-.171-16.331s-3.108.336-3.737.365c-2,.091-2.994-.822-2.747-2.876.21-1.744.94-2.4,2.094-2.625a36.777,36.777,0,0,1,4.266-.309s0-3.5.034-4.508c.09-2.374.956-5,2.836-6.118a9.611,9.611,0,0,1,6.056-1.187,13.047,13.047,0,0,1,4.278.822,2,2,0,0,1,1.238,2.556c-.27,1.644-.968,2.192-2.229,2.26s-2.927-.73-4.615-.251a2.372,2.372,0,0,0-1.711,1.826,27.377,27.377,0,0,0,.106,4.03s3.771-.139,4.688-.187a3.216,3.216,0,0,1,3.351,2.671c.171.9.07,1.9-2.3,2.18-2.351.279-5.3.68-5.3.68l.77,16.046a36.331,36.331,0,0,0,3.97-1.018c5.729-1.864,10.507-4.638,11.458-11.183C-73.958,629.487-74.722,622.947-75.868,616.767Z" transform="translate(119.481 -604.458)" fill="#dd5957"/>
</svg>
