<svg id="Layer_1" data-name="Layer 1" xmlns="http://www.w3.org/2000/svg" viewBox="0 0 390 494"><defs><style>.cls-1{fill:#dd5a57;}.cls-2{fill:#235ba8;}.cls-3{fill:#f29746;}.cls-4{fill:#f2bc50;}.cls-10,.cls-11,.cls-12,.cls-5,.cls-6,.cls-7,.cls-8,.cls-9{fill:none;stroke-miterlimit:10;}.cls-11,.cls-5{stroke:#f29746;}.cls-5,.cls-8{stroke-width:3px;}.cls-10,.cls-6{stroke:#dd5a57;}.cls-12,.cls-6,.cls-9{stroke-width:5px;}.cls-12,.cls-7,.cls-8{stroke:#235ba8;}.cls-10,.cls-11,.cls-7{stroke-width:4px;}.cls-9{stroke:#f2bc50;}</style></defs><path class="cls-1" d="M276.27,133.22c1.55-24.49-12-41.67-37.52-25.95-17.87,11-22.2,20.68-36.26,32.89-.37.33-.75.65-1.14,1-2.65,2.25-5.25,4.34-7.84,6.29-15.32,11.49-30.52,17.61-57.08,17a325.5,325.5,0,0,0-52.33,3.16c-2.66.38-5.27.81-7.8,1.27-2.12.38-4.2.79-6.21,1.22-18.68,4-32.46,9.17-45.87,23.29-1,1-1.87,2.07-2.72,3.14-.69.87-1.34,1.76-1.94,2.66-.21.3-.4.6-.59.91-9.26,14.52-7.85,32,11.6,35.63,16.78,3.14,24,0,42.34,0,16.25,0,28,2.37,37.4,9.88,14.12,11.29,16.56,24.45,18.35,43,1.15,11.93,4.45,21.21,9.35,28.22a39.35,39.35,0,0,0,7.78,8.35c10,8,23.49,10.61,37.92,9.3s28.69-7,36.9-24.07c.29-.62.58-1.24.86-1.89q.63-1.44,1.2-3c.38-1,.75-2.1,1.09-3.21A85.52,85.52,0,0,0,227,285.83a133.5,133.5,0,0,0,.68-14.53c0-2.36-.08-4.82-.2-7.36-1-20.95.23-37.81,8.39-55.11.28-.59.56-1.18.86-1.76l.69-1.35c.42-.8.86-1.61,1.31-2.41.13-.25.25-.49.39-.73a123.57,123.57,0,0,1,12.36-17.68c11.78-14.26,20.28-23.62,23.61-42a160.85,160.85,0,0,1,24.44,3.7c-.47,1.22-1,2.44-1.48,3.67-8.45,20.21-31,34.85-40.93,50.1-1.28,2-2.46,3.81-3.52,5.58q-.48.76-.9,1.5c-.31.5-.59,1-.86,1.48s-.53.91-.76,1.36-.55,1-.81,1.5c-5.28,10.1-7.08,18.95-6.56,35.16.18,5.59.89,13.09,1.11,21.74.12,4.36.11,9-.15,13.87a120.57,120.57,0,0,1-3.33,23c-.35,1.4-.73,2.82-1.15,4.23-.34,1.13-.71,2.25-1.12,3.34-.13.37-.27.73-.42,1.09-11.54,29.11-47.33,43-79.27,31.21-10.86-4-18.64-9-24.27-14.57a46.35,46.35,0,0,1-7.51-9.71c-5.43-9.39-7.13-19.8-8.44-30.06-1.77-13.76-3.89-22.23-13.77-30s-24.7-8.46-44.46-7.05c-23.32,1.66-42.91,6-60.69-.71L0,253.26V185.37a79.85,79.85,0,0,1,7-6.27c.72-.58,1.45-1.15,2.2-1.72l1.13-.84c.38-.28.76-.56,1.15-.83h0c16.1-11.45,38-19.69,62.94-22.84q3.63-.47,7.34-.78l1-.08c22.87-1.84,33.39.38,54.39,1.85,18,1.25,30.32-4.74,39.77-12.68a86.39,86.39,0,0,0,7.94-7.67c3-3.27,5.77-6.58,8.4-9.65,12.35-14.46,26.81-42.34,48.69-52.93s48.65.33,57.87,20.47c7.31,16,7.14,30.7,3,45.46-6-1.11-11.69-2.24-16.75-2.76C282.49,133.72,279.27,133.43,276.27,133.22Z"/><path class="cls-2" d="M390,243v67c-8.15,4.3-18.21,6-29.16,4.08-20.91-3.57-51.51-22.58-69.16-28.93-17-6.14-31.17-5.26-47-2.5-1.94.34-3.9.7-5.9,1.09-3.67.7-7.56,1.46-11.77,2.13a161.49,161.49,0,0,1-41.15,1.4c-29-2.56-46.74-27.6-34.58-54.34,10.58-23.29,42.34-33.17,67-32.47a139.12,139.12,0,0,1,20.81,2.16h0l-.34.62c-.77,1.37-1.49,2.72-2.16,4.08-.26.51-.51,1-.76,1.55a122.92,122.92,0,0,0-18.27-1.35c-19.05,0-36.34,2.47-52.93,19.05C147,244.18,160.42,266.05,183.71,271c15.14,3.22,30.89,2.05,43.95.31,6.52-.87,12.37-1.88,17.14-2.56,1.64-.23,3.17-.43,4.54-.57,14.11-1.41,30.84-2.43,46.58,0,15,2.32,24.95,6.14,43.75,15.53,18.08,9,37.7,5.36,41.64-7.77a15.25,15.25,0,0,0,.66-4.24,14.91,14.91,0,0,0-.5-3.95c-2.7-10.18-15.86-17.92-27.68-20.74-4.48-1.06-8.8-2.18-13-3.33q-4-1.09-7.84-2.24c-17.17-5.1-32.35-10.9-47.63-17-11.72-4.69-22.92-9.34-35.08-12.58.29-.55.58-1.09.89-1.65l.68-1.21c.28-.49.56-1,.86-1.48l.9-1.5c10.82,3.11,20.95,7.18,31.75,11.36,14.53,5.63,29.66,11.27,47.5,15h0q1.94.41,3.9.78l1.73.32.48.09,1.78.31a203.69,203.69,0,0,0,21.53,2.52C373.7,237.16,382.87,239.48,390,243Z"/><path class="cls-3" d="M379.9,75.51c-12.23-18-39.52-33.87-67-43.75-26.51-9.52-51.51-11.29-81.86,0-28,10.43-51.52,35.28-62.1,55-10.29,19.21-7.88,44.64,8,54.37a86.39,86.39,0,0,0,7.94-7.67c-9.31-7.83-10.79-28-1.13-42.46,12.7-19.06,26.67-30.77,55-40.23,23.29-7.76,51.73-4.93,78.34,3.53,15.52,4.94,40.79,15.78,50.81,28.93,11.29,14.82,9.63,33.55-6.35,45.88-18.59,14.34-40.39,11.09-58.76,7.7-6-1.11-11.69-2.24-16.75-2.76-3.55-.37-6.77-.66-9.77-.87-18.18-1.31-27.61.15-44.57,4.39-12.47,3.12-21.43,3.76-29.21,2.55-.37.33-.75.65-1.14,1-2.65,2.25-5.25,4.34-7.84,6.29,11.89,2.45,24.1,1.32,35.36-.64,14.78-2.57,28.49-5.06,46.2-3.84a160.85,160.85,0,0,1,24.44,3.7l.64.14c24.7,5.64,50.37,5,71.28-12C390.48,119.27,391.89,93.15,379.9,75.51Z"/><path class="cls-4" d="M271.22,319a98.72,98.72,0,0,0-29.9-13.4c-.36,1.4-.74,2.82-1.15,4.23s-1,3-1.54,4.43a53.4,53.4,0,0,1,15.65,7.57c23.48,17.39,27,45.33,13.41,63.51-12.7,16.94-40.39,23.36-72,19.05-31.06-4.23-50.82-9.17-74.1-7.05C100.23,399.26,86.32,407.9,80,411.43c-15,8.34-36,6.35-26.11-16.94,7.53-17.76,48.24-45.5,81.23-63.61,3.68-2,7.27-3.92,10.71-5.68,7.43-3.79,14.14-6.9,19.56-9,15.57-6.15,36.61-8,55.25-5.72a60,60,0,0,0,3.15-8.1c-19.59-2.15-41.12.1-63.34,6.76-7.57,2.27-15.06,4.89-22.4,7.76q-5.27,2.07-10.44,4.31C97.41,334.22,70.34,351.31,51,367c-26.11,21.17-37.5,45.2-38.81,61.4-2.12,26.11,12,30.34,29.64,25.4,22-6.16,46-25.72,73.39-36,16.94-6.35,31.76-7,65.64-2.82,31.63,4,81.15,4.94,104.44-17.64C303.69,379.52,301.56,339.45,271.22,319Z"/><path class="cls-4" d="M146.31,106.56c.7-9.88,10.51-20.11,12.7-31,2.82-14.11-12-9.88-19.76-4.23-8.71,6.33-19.76,19-17.64,37.4s13.83,30.61,24.7,33.17c12,2.82,16.93-.71,9.17-12.7C150.68,121.72,145.6,116.44,146.31,106.56Zm-.71,28.94c-9.52-6.59-14.82-14.12-16.94-28.94-1.7-11.89,4.94-24.7,14.12-30.34,6.19-3.81,12.7-4.24,9.88,4.94-3.28,10.66-8.47,14.11-9.18,24s4.11,16.75,9.18,24C157.6,136.2,154.77,141.85,145.6,135.5Z"/><path class="cls-2" d="M26.33,356.39A34.92,34.92,0,0,0,0,366.35v9.21c6.78-9,15.88-13.95,24.22-14.94,12-1.41,9.17,9.17.7,14.82C11.89,384.13,7.28,391,.93,403c-.29.54-.6,1.09-.93,1.62V410a21.87,21.87,0,0,0,1.63-2.76c3.53-7.06,8.41-15.47,12.71-19.76a73.8,73.8,0,0,1,14.11-11.29C39,369.79,39.74,357.13,26.33,356.39Z"/><path class="cls-1" d="M183.71,432.6c-5.86-4.68-14.82-8.47-25.41-9.88s-31.13-1.46-38.11,10.59c-7.76,13.41,9.5,17.94,18.35,15.52,7.77-2.11,14.82-6.35,21.88-5.64s9.17,2.82,19.05,4.23C190,448.92,190.77,438.25,183.71,432.6Zm-5.65,11.29c-8.5-2-14.08-4.94-21.17-4.94a47.37,47.37,0,0,0-18.35,3.53c-8.59,3.22-22.93-.29-14.82-9.88,7.77-9.17,27.5-8.23,33.17-7.76,8.47.71,18.21,3.7,23.29,7.76C187.24,438.25,187.24,446,178.06,443.89Z"/><path class="cls-3" d="M324.15,319c-4.94-10.58-13.41-19.05-25.41-19.05-12.7,0-13.77,11.63-7.06,18.35,3.53,3.53,4.94,4.94,6.35,12,1.28,6.38.28,13.87,7.06,21.88,7.76,9.18,17.84,6.86,21.88-2.82C330.5,340.86,329.09,329.57,324.15,319Zm-.71,30.35c-1.94,5.35-7.76,9.88-14.82,2.82-6.39-6.39-6.41-12.58-7.06-19-.7-7.06-2.11-10.59-8.47-18.35-2.86-3.5-3.52-12.7,7.06-9.18,8.06,2.69,14.12,9.18,19.06,18.35C324.74,334.21,326.26,341.57,323.44,349.33Z"/><ellipse class="cls-5" cx="75.93" cy="102.43" rx="4.45" ry="4.1" transform="translate(-42.41 149.9) rotate(-75.31)"/><ellipse class="cls-6" cx="102.68" cy="100.92" rx="6.89" ry="7.46" transform="translate(-12.11 14.02) rotate(-7.38)"/><ellipse class="cls-7" cx="91.14" cy="127.96" rx="5.36" ry="4.95" transform="translate(-21.05 17.99) rotate(-10.11)"/><ellipse class="cls-8" cx="340.92" cy="169.82" rx="4.03" ry="3.85" transform="translate(90.21 456.54) rotate(-75.31)"/><ellipse class="cls-9" cx="367.43" cy="160.73" rx="6.5" ry="5.64" transform="translate(-17.6 48.52) rotate(-7.38)"/><ellipse class="cls-10" cx="355.76" cy="182.98" rx="5.22" ry="4.29" transform="translate(-26.6 65.3) rotate(-10.11)"/><ellipse class="cls-10" cx="85.47" cy="453.97" rx="5.22" ry="4.29" transform="translate(-78.37 22.06) rotate(-10.11)"/><ellipse class="cls-11" cx="108.52" cy="466.45" rx="5.99" ry="5.29" transform="translate(-218.69 116.75) rotate(-30)"/><ellipse class="cls-12" cx="360.14" cy="349.33" rx="6.7" ry="7.41" transform="translate(-94.65 561.22) rotate(-69.11)"/><path class="cls-4" d="M389.42,345.12h0l.25,0a2.84,2.84,0,0,1,.31.06v-5.05a5.22,5.22,0,0,0-.58,0,6.39,6.39,0,1,0,0,12.77l.58,0v-5.08a2.23,2.23,0,0,1-.39.09h-.16a1.42,1.42,0,1,1,0-2.77Z"/><path class="cls-1" d="M382.25,362.77a8.88,8.88,0,0,0-4.21,5.32,6.74,6.74,0,0,0,.63,5.17,6.81,6.81,0,0,0,4.18,3.14,8.1,8.1,0,0,0,2.09.27,9.14,9.14,0,0,0,4.58-1.26l.48-.29V368.2a4.17,4.17,0,0,1-1.38,2.93h0a5.18,5.18,0,0,1-1.06.8,4.89,4.89,0,0,1-3.66.59,2.77,2.77,0,0,1-1.75-1.28,2.8,2.8,0,0,1-.23-2.13,4.93,4.93,0,0,1,2.35-2.89,5.31,5.31,0,0,1,2.59-.72,3.64,3.64,0,0,1,2.07.6,2.33,2.33,0,0,1,.76.8,2.61,2.61,0,0,1,.33,1.29v-6.05A8.71,8.71,0,0,0,382.25,362.77Z"/><path class="cls-4" d="M82.74,152a32.93,32.93,0,0,0-9.45-14.89c-15-13.53-39.69-10.69-55.06,6.34A44.43,44.43,0,0,0,6.48,172.26,38.53,38.53,0,0,0,7,179.1q2.16-1.74,4.48-3.39c0-.64,0-1.28,0-1.93a38,38,0,0,1,10.12-24.66c7.58-8.41,17.77-12.81,27.4-12.81a27.57,27.57,0,0,1,18.69,6.92,26.65,26.65,0,0,1,6.76,9.63A30.57,30.57,0,0,1,76.6,165a35.26,35.26,0,0,1-.3,3.84,38.59,38.59,0,0,1-9.82,20.82A38.1,38.1,0,0,1,43,202.27a28.32,28.32,0,0,1-21.48-5.76A40.66,40.66,0,0,0,19,200.08a33.84,33.84,0,0,0,21.46,7.37,40,40,0,0,0,4.73-.29,44.41,44.41,0,0,0,27.45-14.63A44.91,44.91,0,0,0,84.1,167.59a38.29,38.29,0,0,0,.26-3.87A37.58,37.58,0,0,0,82.74,152Z"/><path class="cls-1" d="M384.81,39.52c-9.05-17.23-32.38-22.85-52-12.54a45.67,45.67,0,0,0-11.1,8.17,41.15,41.15,0,0,0-9.2,14c-.45,1.15-.84,2.3-1.17,3.46a32.52,32.52,0,0,0,2.27,24.32c6,11.38,18.19,17.69,31.46,17.69a44.27,44.27,0,0,0,20.56-5.16,47.36,47.36,0,0,0,4.61-2.78c-.71-1.15-1.47-2.29-2.32-3.41a35,35,0,0,0-2.77-3.18,41.74,41.74,0,0,1-3.89,2.34c-16.53,8.68-36,4.26-43.44-9.87a26.06,26.06,0,0,1-2-18.63A31.66,31.66,0,0,1,317,50.05,35.17,35.17,0,0,1,326.07,37a39.69,39.69,0,0,1,8.26-5.79A38.1,38.1,0,0,1,352,26.75c11,0,20.95,5.08,25.8,14.31,3.55,6.76,3.84,14.76.8,22.51a33.94,33.94,0,0,1-3.19,6.16,61.62,61.62,0,0,1,4.51,5.78c.26.39.51.79.76,1.19a40.41,40.41,0,0,0,5.25-9.4C389.62,57.8,389.23,47.94,384.81,39.52Z"/><path class="cls-3" d="M381.47,267.74A29.71,29.71,0,0,0,390,263v4.7a36.63,36.63,0,0,1-8,4h0a36.63,36.63,0,0,1-12.3,2.13A37.22,37.22,0,0,1,333,241.43h0q3.85,1.14,7.84,2.25a30.86,30.86,0,0,0,30.28,25.91,30.34,30.34,0,0,0,10.38-1.83Z"/><path class="cls-3" d="M390,205.17v8.93a30.27,30.27,0,0,0-18.92-6.62,30.86,30.86,0,0,0-30.36,26.41l-1.78-.31-.48-.09-1.73-.32q-2-.37-3.9-.78h0A37.23,37.23,0,0,1,369.66,199,36.49,36.49,0,0,1,390,205.17Z"/><path class="cls-2" d="M285.74,396.9a37.69,37.69,0,0,0-17.23-12.74,47.92,47.92,0,0,0-17-3.07c-18.84,0-34.64,10.53-38.57,24.57,2.77,0,5.5,0,8.16-.19,3-11.47,16.45-20.15,32.52-20.15a42.45,42.45,0,0,1,12.6,1.88c7.43,2.31,13.51,6.61,17.08,12a20.12,20.12,0,0,1,3.49,11.17c0,13.82-14.88,25.06-33.17,25.06-15.21,0-28.06-7.79-31.95-18.36-3.1.09-6.19.11-9.25.08,2.85,15.11,19.29,26.74,39.09,26.74,21.79,0,39.52-14.08,39.52-31.4A26.44,26.44,0,0,0,285.74,396.9Z"/></svg>