<svg id="Layer_1" data-name="Layer 1" xmlns="http://www.w3.org/2000/svg" viewBox="0 0 320 494"><defs><style>.cls-1{fill:#dd5a57;}.cls-2{fill:#235ba8;}.cls-3{fill:#f29746;}.cls-4{fill:#f2bc50;}.cls-10,.cls-5,.cls-6,.cls-7,.cls-8,.cls-9{fill:none;stroke-miterlimit:10;}.cls-10,.cls-5{stroke:#f29746;}.cls-5,.cls-8{stroke-width:3px;}.cls-6,.cls-9{stroke:#dd5a57;}.cls-6{stroke-width:5px;}.cls-7,.cls-8{stroke:#235ba8;}.cls-10,.cls-7,.cls-9{stroke-width:4px;}</style></defs><path class="cls-1" d="M240.07,143a160.85,160.85,0,0,1,24.44,3.7c-.47,1.22-1,2.44-1.48,3.67-8.45,20.21-31,34.85-40.93,50.1-1.28,2-2.46,3.81-3.52,5.58q-.48.76-.9,1.5c-.31.5-.59,1-.86,1.48s-.53.91-.76,1.36-.55,1-.81,1.5c-5.28,10.1-7.08,18.95-6.56,35.16.18,5.59.89,13.09,1.11,21.74.12,4.36.11,9-.15,13.87a120.57,120.57,0,0,1-3.33,23c-.35,1.4-.73,2.82-1.15,4.23-.34,1.13-.71,2.25-1.12,3.34-.13.37-.27.73-.42,1.09-11.54,29.11-47.33,43-79.27,31.21-10.86-4-18.64-9-24.27-14.57a46.35,46.35,0,0,1-7.51-9.71c-5.43-9.39-7.13-19.8-8.44-30.06-1.77-13.76-3.89-22.23-13.77-30s-24.7-8.46-44.46-7.05c-9.18.66-17.78,1.73-25.91,2.37v-20c13.78,1.87,21.26-.72,37.91-.72,16.25,0,28,2.37,37.4,9.88,14.12,11.29,16.56,24.45,18.35,43,1.15,11.93,4.45,21.21,9.35,28.22a39.35,39.35,0,0,0,7.78,8.35c10,8,23.49,10.61,37.92,9.3s28.69-7,36.9-24.07c.29-.62.58-1.24.86-1.89q.63-1.44,1.2-3c.38-1,.75-2.1,1.09-3.21A85.52,85.52,0,0,0,192,285.83a133.5,133.5,0,0,0,.68-14.53c0-2.36-.08-4.82-.2-7.36-1-20.95.23-37.81,8.39-55.11.28-.59.56-1.18.86-1.76l.69-1.35c.42-.8.86-1.61,1.31-2.41.13-.25.25-.49.39-.73a123.57,123.57,0,0,1,12.36-17.68C228.24,170.64,236.74,161.28,240.07,143Z"/><path class="cls-1" d="M267.79,136.85c-6-1.11-11.69-2.24-16.75-2.76-3.55-.37-6.77-.66-9.77-.87,1.55-24.49-12-41.67-37.52-25.95-17.87,11-22.2,20.68-36.26,32.89-.37.33-.75.65-1.14,1-2.65,2.25-5.25,4.34-7.84,6.29-15.32,11.49-30.52,17.61-57.08,17a325.5,325.5,0,0,0-52.33,3.16c-2.66.38-5.27.81-7.8,1.27-2.12.38-4.2.79-6.21,1.22C21.34,173,10.25,176.6,0,183.93V163a156.57,156.57,0,0,1,39.39-10.09q3.63-.47,7.34-.78l1-.08c22.87-1.84,33.39.38,54.39,1.85,18,1.25,30.32-4.74,39.77-12.68a86.39,86.39,0,0,0,7.94-7.67c3-3.27,5.77-6.58,8.4-9.65,12.35-14.46,26.81-42.34,48.69-52.93s48.65.33,57.87,20.47C272.11,107.36,271.94,122.09,267.79,136.85Z"/><path class="cls-2" d="M320,235.81V247.3l-1.21-.3c-4.48-1.06-8.8-2.18-13-3.33q-4-1.09-7.84-2.24c-17.17-5.1-32.35-10.9-47.63-17-11.72-4.69-22.92-9.34-35.08-12.58.29-.55.58-1.09.89-1.65l.68-1.21c.28-.49.56-1,.86-1.48l.9-1.5c10.82,3.11,20.95,7.18,31.75,11.36,14.53,5.63,29.66,11.27,47.5,15h0q1.94.41,3.9.78l1.73.32.48.09,1.78.31C310.29,234.68,315,235.32,320,235.81Z"/><path class="cls-2" d="M304.67,283.7A47.34,47.34,0,0,0,320,288.39v24.34c-20.45-5.56-47.25-21.84-63.32-27.62-17-6.14-31.17-5.26-47-2.5-1.94.34-3.9.7-5.9,1.09-3.67.7-7.56,1.46-11.77,2.13a161.49,161.49,0,0,1-41.15,1.4c-29-2.56-46.74-27.6-34.58-54.34,10.58-23.29,42.34-33.17,67-32.47a139.12,139.12,0,0,1,20.81,2.16h0l-.34.62c-.77,1.37-1.49,2.72-2.16,4.08-.26.51-.51,1-.76,1.55a122.92,122.92,0,0,0-18.27-1.35c-19.05,0-36.34,2.47-52.93,19.05C112,244.18,125.42,266.05,148.71,271c15.14,3.22,30.89,2.05,43.95.31,6.52-.87,12.37-1.88,17.14-2.56,1.64-.23,3.17-.43,4.54-.57,14.11-1.41,30.84-2.43,46.58,0C275.93,270.49,285.87,274.31,304.67,283.7Z"/><path class="cls-3" d="M291.06,37A185.8,185.8,0,0,1,320,52.47v19.4C308.21,64,292.82,57.76,282.09,54.34l-1.33-.41c-1.47-.46-2.95-.91-4.44-1.32-24.9-7.08-50.95-9-72.57-1.8C175.38,60.27,161.41,72,148.71,91c-9.66,14.49-8.18,34.63,1.13,42.46a86.39,86.39,0,0,1-7.94,7.67c-15.89-9.73-18.3-35.16-8-54.37C144.47,67,168,42.19,196,31.76c30.35-11.29,55.35-9.52,81.86,0q4.44,1.59,8.84,3.39Q288.88,36,291.06,37Z"/><path class="cls-3" d="M320,133.44v11.17c-17.21,7.13-36.3,6.41-54.85,2.18l-.64-.14a160.85,160.85,0,0,0-24.44-3.7c-17.71-1.22-31.42,1.27-46.2,3.84-11.26,2-23.47,3.09-35.36.64,2.59-2,5.19-4,7.84-6.29.39-.33.77-.65,1.14-1,7.78,1.21,16.74.57,29.21-2.55,17-4.24,26.39-5.7,44.57-4.39,3,.21,6.22.5,9.77.87,5.06.52,10.72,1.65,16.75,2.76C284,139.85,303,142.74,320,133.44Z"/><path class="cls-4" d="M250.74,396.91l-.41.41c-.67.65-1.37,1.28-2.08,1.88-14.78,12.69-38.45,17.18-61.63,17.87-3.1.09-6.19.12-9.25.09a284.61,284.61,0,0,1-31.48-2.2c-33.88-4.23-48.7-3.53-65.64,2.82-27.38,10.27-51.38,29.83-73.39,36A49.85,49.85,0,0,1,0,455.22v-73A135.54,135.54,0,0,1,16,367c19.31-15.66,46.38-32.75,76.55-45.8q5.17-2.24,10.43-4.31h0c7.34-2.87,14.83-5.49,22.4-7.76,22.22-6.66,43.75-8.91,63.34-6.76-.34,1.11-.71,2.18-1.09,3.21s-.78,2-1.2,3c-.28.65-.57,1.27-.86,1.89-18.64-2.28-39.68-.43-55.25,5.72-5.42,2.14-12.13,5.25-19.56,9h0c-3.44,1.75-7,3.65-10.7,5.67-33,18.11-73.7,45.85-81.23,63.61C9,417.78,30,419.77,45,411.43c6.35-3.53,20.26-12.17,41.64-14.11,23.28-2.12,43,2.82,74.1,7.05a137.19,137.19,0,0,0,17.18,1.29h1.37l2.14,0,2.42-.07,1.36-.06.87,0c19.48-1.14,35.7-7.25,45.12-18.27.53-.61,1-1.24,1.52-1.88.29-.38.56-.77.83-1.16,12.64-18.19,8.75-45.32-14.24-62.35a53.4,53.4,0,0,0-15.65-7.57c.15-.36.29-.72.42-1.09.41-1.09.78-2.21,1.12-3.34.41-1.41.79-2.83,1.15-4.23a98.72,98.72,0,0,1,29.9,13.4C266.33,339.3,268.66,378.92,250.74,396.91Z"/><path class="cls-4" d="M111.31,106.56c.7-9.88,10.51-20.11,12.7-31,2.82-14.11-12-9.88-19.76-4.23-8.71,6.33-19.76,19-17.64,37.4s13.83,30.61,24.7,33.17c12,2.82,16.93-.71,9.17-12.7C115.68,121.72,110.6,116.44,111.31,106.56Zm-.71,28.94c-9.52-6.59-14.82-14.12-16.94-28.94C92,94.67,98.6,81.86,107.78,76.22c6.19-3.81,12.7-4.24,9.88,4.94-3.28,10.66-8.47,14.11-9.18,24s4.11,16.75,9.18,24C122.6,136.2,119.77,141.85,110.6,135.5Z"/><path class="cls-2" d="M0,360.16v9.43C1.82,366.24,1.91,362.73,0,360.16Z"/><path class="cls-1" d="M148.71,432.6c-5.86-4.68-14.82-8.47-25.41-9.88s-31.13-1.46-38.11,10.59c-7.76,13.41,9.5,17.94,18.35,15.52,7.77-2.11,14.82-6.35,21.88-5.64s9.17,2.82,19,4.23C155,448.92,155.77,438.25,148.71,432.6Zm-5.65,11.29c-8.5-2-14.08-4.94-21.17-4.94a47.37,47.37,0,0,0-18.35,3.53c-8.59,3.22-22.93-.29-14.82-9.88,7.77-9.17,27.5-8.23,33.17-7.76,8.47.71,18.21,3.7,23.29,7.76C152.24,438.25,152.24,446,143.06,443.89Z"/><path class="cls-3" d="M289.15,319c-4.94-10.58-13.41-19.05-25.41-19.05-12.7,0-13.77,11.63-7.06,18.35,3.53,3.53,4.94,4.94,6.35,12,1.28,6.38.28,13.87,7.06,21.88,7.76,9.18,17.84,6.86,21.88-2.82C295.5,340.86,294.09,329.57,289.15,319Zm-.71,30.35c-1.94,5.35-7.76,9.88-14.82,2.82-6.39-6.39-6.41-12.58-7.06-19-.7-7.06-2.11-10.59-8.47-18.35-2.86-3.5-3.52-12.7,7.06-9.18,8.06,2.69,14.12,9.18,19.06,18.35C289.74,334.21,291.26,341.57,288.44,349.33Z"/><ellipse class="cls-5" cx="40.93" cy="102.43" rx="4.45" ry="4.1" transform="translate(-68.54 116.05) rotate(-75.31)"/><ellipse class="cls-6" cx="67.68" cy="100.92" rx="6.89" ry="7.46" transform="translate(-12.4 9.53) rotate(-7.38)"/><ellipse class="cls-7" cx="56.14" cy="127.96" rx="5.36" ry="4.95" transform="translate(-21.59 11.84) rotate(-10.11)"/><ellipse class="cls-8" cx="305.92" cy="169.82" rx="4.03" ry="3.85" transform="translate(64.08 422.68) rotate(-75.31)"/><ellipse class="cls-9" cx="50.47" cy="453.97" rx="5.22" ry="4.29" transform="translate(-78.92 15.91) rotate(-10.11)"/><ellipse class="cls-10" cx="73.52" cy="466.45" rx="5.99" ry="5.29" transform="translate(-223.38 99.25) rotate(-30)"/><path class="cls-4" d="M49.36,163.72a38.29,38.29,0,0,1-.26,3.87,44.91,44.91,0,0,1-11.49,24.94,44.41,44.41,0,0,1-27.45,14.63,40,40,0,0,1-4.73.29A36.06,36.06,0,0,1,0,207v-4.81a31.3,31.3,0,0,0,8,0,38.1,38.1,0,0,0,23.5-12.59,38.59,38.59,0,0,0,9.82-20.82,35.26,35.26,0,0,0,.3-3.84,30.57,30.57,0,0,0-2.21-12.16,26.65,26.65,0,0,0-6.76-9.63,27.57,27.57,0,0,0-18.69-6.92,34.68,34.68,0,0,0-13.94,3v-7.71c13.24-5.36,28-3.76,38.29,5.49A32.93,32.93,0,0,1,47.74,152,37.58,37.58,0,0,1,49.36,163.72Z"/><path class="cls-1" d="M320,21.86v5c-1-.09-2-.13-3-.13a38.1,38.1,0,0,0-17.65,4.44A39.69,39.69,0,0,0,291.07,37h0A35.1,35.1,0,0,0,282,50.05a31.66,31.66,0,0,0-1.23,3.88,26.06,26.06,0,0,0,2,18.63c6.5,12.38,22.27,17.31,37.2,12.5v8.38a43.12,43.12,0,0,1-9.95,1.18c-13.27,0-25.49-6.31-31.46-17.69a32.52,32.52,0,0,1-2.27-24.32c.33-1.16.72-2.31,1.17-3.46a41.15,41.15,0,0,1,9.2-14A45.67,45.67,0,0,1,297.79,27,44,44,0,0,1,320,21.86Z"/><path class="cls-3" d="M301.73,233.17q-2-.37-3.9-.78h0A37.49,37.49,0,0,1,320,202.06v10a31.08,31.08,0,0,0-14.28,21.79l-1.78-.31-.48-.09Z"/><path class="cls-3" d="M320,265v5.8a37.48,37.48,0,0,1-22-29.33h0q3.85,1.14,7.84,2.25A31.12,31.12,0,0,0,320,265Z"/><path class="cls-2" d="M250.74,396.9a37.69,37.69,0,0,0-17.23-12.74,47.92,47.92,0,0,0-17-3.07c-18.84,0-34.64,10.53-38.57,24.57,2.77,0,5.5,0,8.16-.19,3-11.47,16.45-20.15,32.52-20.15a42.45,42.45,0,0,1,12.6,1.88c7.43,2.31,13.51,6.61,17.08,12a20.12,20.12,0,0,1,3.49,11.17c0,13.82-14.88,25.06-33.17,25.06-15.21,0-28.06-7.79-31.95-18.36-3.1.09-6.19.11-9.25.08,2.85,15.11,19.29,26.74,39.09,26.74,21.79,0,39.52-14.08,39.52-31.4A26.44,26.44,0,0,0,250.74,396.9Z"/></svg>