<svg id="Instagram_Bt" xmlns="http://www.w3.org/2000/svg" width="45" height="45" viewBox="0 0 45 45">
  <path id="Trazado_1" data-name="Trazado 1" d="M-97.26,552.97a2.065,2.065,0,0,0-1.844,2.092,1.8,1.8,0,0,0,1.887,1.786,1.806,1.806,0,0,0,1.889-1.786A1.976,1.976,0,0,0-97.26,552.97Z" transform="translate(119.481 -532.861)" fill="#dd5957"/>
  <path id="Trazado_2" data-name="Trazado 2" d="M-91.052,544.616a62.958,62.958,0,0,0-11.24-.229c-2.152.287-3.856,1.013-4.586,3.7-.681,2.508-1.532,8.515-.349,12.8.683,2.471,2.133,4.089,6,4.4a51.316,51.316,0,0,0,10.989-.545c2.258-.574,3.5-1.62,4.15-4.314a33.753,33.753,0,0,0,.393-11.5C-86.063,546.74-87.522,544.942-91.052,544.616Zm-.5,10.6a5.464,5.464,0,0,1-5.665,5.453,5.8,5.8,0,0,1-5.606-5.6c-.145-3.116,2.521-5.419,5.606-5.606A5.547,5.547,0,0,1-91.552,555.214Zm2.183-5.043a1.905,1.905,0,0,1-1.944-1.977,1.828,1.828,0,0,1,1.765-1.748,1.732,1.732,0,0,1,1.928,1.7A1.9,1.9,0,0,1-89.369,550.171Z" transform="translate(119.481 -532.861)" fill="#dd5957"/>
  <path id="Trazado_3" data-name="Trazado 3" d="M-74.834,543.933c-.538-6.323-2.947-8.666-7.761-9.738-7.49-1.667-23.564-1.692-28.354-.518-3.874.948-6.983,3.052-8.14,8.322-.84,3.823-.3,16.277,1.361,23.928,1.294,5.95,3.761,8.7,10.554,10.552a51.229,51.229,0,0,0,19.465.83c6.679-.963,8.677-5.085,10.833-10.7C-73.881,558.8-74.357,549.535-74.834,543.933Zm-7.33,17.054c-.981,4.061-3.518,6.8-7.144,7.727a36,36,0,0,1-7.147.563,39.6,39.6,0,0,1-5.294-.306c-3.18-.455-7.693-1.016-9.137-6.252-1.468-5.321-.368-13.018.326-15.653a8,8,0,0,1,7.451-6.437c3.66-.457,10.159-.079,12.1-.017,5.363.171,8.786,3.692,9.177,7.217C-81.623,549.749-81.121,556.666-82.164,560.987Z" transform="translate(119.481 -532.861)" fill="#dd5957"/>
</svg>
