<svg xmlns="http://www.w3.org/2000/svg" width="494" height="494" viewBox="0 0 494 494">
  <g id="Grupo_1" data-name="Grupo 1" transform="translate(16 242)">
    <g id="Ilustracion" transform="translate(-16 -242)">
      <rect id="Ilustracion-2" data-name="Ilustracion" width="494" height="494" fill="none"/>
      <g id="Ilustracion_v2-01" transform="translate(32.194 20.063)">
        <g id="Rojo" transform="translate(0 45.024)">
          <path id="Trazado_18" data-name="Trazado 18" d="M352.444,162.006c5.065.523,10.737,1.653,16.776,2.769,4.139-14.77,4.316-29.511-3-45.5-9.225-20.159-36.024-31.079-57.921-20.484s-36.377,38.5-48.738,52.976c-2.621,3.073-5.375,6.357-8.4,9.656a88.3,88.3,0,0,1-7.953,7.65c-9.43,7.968-21.763,13.972-39.8,12.714-21.325-1.49-31.842-3.751-55.448-1.766-37.79,3.179-69.5,17.92-86.175,38.143s-21.544,53.329,4.591,63.218c17.786,6.732,37.437,2.373,60.746.706,19.778-1.413,34.611-.706,44.5,7.064s12.008,16.246,13.774,30.02c2.656,20.746,6.894,42.1,40.262,54.389,33.552,12.361,71.341-3.532,80.877-35.671,7.417-25,3.963-49.444,3.532-62.865-.706-21.9,2.825-30.373,13.421-46.619,9.959-15.271,32.492-29.921,40.968-50.151.516-1.229,1-2.451,1.476-3.673a161.3,161.3,0,0,0-24.454-3.7c-3.334,18.365-11.853,27.717-23.642,41.985-22.264,26.954-25.429,48.738-24.016,79.111,2.557,55.039-20.484,68.516-43.794,70.635-27.548,2.508-51.563-9.182-55.1-45.913-1.787-18.612-4.238-31.786-18.365-43.087-9.394-7.516-21.19-9.889-37.436-9.889-18.365,0-25.591,3.15-42.381,0-22.6-4.238-20.873-27.1-6.357-42.381,13.421-14.127,27.216-19.3,45.913-23.31,19.778-4.238,45.164-6.131,66.4-5.651,26.58.607,41.795-5.517,57.137-17.023,2.592-1.942,5.192-4.04,7.848-6.286l1.144-.982c14.063-12.22,18.408-21.9,36.292-32.923,25.57-15.737,39.1,1.462,37.557,25.972C345.67,161.349,348.912,161.639,352.444,162.006Z" transform="translate(-48.025 -94.669)" fill="#dd5a57"/>
        </g>
        <g id="Azul" transform="translate(165.628 178.723)">
          <path id="Trazado_19" data-name="Trazado 19" d="M545.618,354.62c-1.413-17.659-15.54-32.492-48.032-34.611-31.842-2.077-55.1-10.6-76.992-19.072-10.807-4.181-20.95-8.257-31.786-11.372-1.236,2.027-2.338,3.963-3.327,5.849,12.17,3.242,23.373,7.89,35.113,12.587,21.191,8.476,42.176,16.331,68.516,22.6,14.833,3.532,31.786,14.833,27.548,28.96-3.941,13.138-23.578,16.8-41.675,7.77-18.824-9.394-28.77-13.223-43.794-15.54-15.752-2.43-32.492-1.413-46.619,0-1.37.134-2.9.332-4.542.572-4.782.706-10.631,1.7-17.164,2.564-13.067,1.738-28.826,2.9-43.984-.311-23.31-4.945-36.73-26.841-19.072-44.5,16.606-16.606,33.9-19.072,52.976-19.072a122.911,122.911,0,0,1,18.287,1.356q1.469-3.115,3.256-6.258a137.093,137.093,0,0,0-20.837-2.161c-24.722-.706-56.508,9.182-67.1,32.492-12.17,26.771,5.651,51.832,34.611,54.389a161.56,161.56,0,0,0,41.194-1.413c4.238-.671,8.1-1.413,11.782-2.119,2-.381,3.963-.749,5.9-1.088,15.872-2.762,30.027-3.638,47.078,2.5,17.659,6.357,48.286,25.386,69.222,28.96C525.134,402.652,547.885,383,545.618,354.62Z" transform="translate(-282.509 -283.95)" fill="#235ba8"/>
        </g>
        <g id="Naranja" transform="translate(180.959 2.115)">
          <path id="Trazado_20" data-name="Trazado 20" d="M521.618,85.54c-12.234-17.991-39.556-33.9-67.1-43.794-26.545-9.529-51.564-11.3-81.937,0-28.056,10.44-51.563,35.317-62.159,55.1-10.3,19.227-7.883,44.677,8.017,54.389a88.274,88.274,0,0,0,7.954-7.671c-9.324-7.833-10.807-27.993-1.137-42.5,12.714-19.071,26.7-30.8,55.1-40.262,23.31-7.77,51.775-4.944,78.4,3.532,15.54,4.944,40.827,15.794,50.857,28.96,11.3,14.833,9.642,33.573-6.357,45.913-18.612,14.353-40.424,11.1-58.8,7.713-6.039-1.116-11.711-2.246-16.776-2.769-3.532-.367-6.774-.657-9.769-.869-18.2-1.293-27.668.184-44.62,4.422-12.481,3.122-21.445,3.758-29.229,2.55l-1.144.982c-2.656,2.246-5.255,4.344-7.848,6.287,11.9,2.458,24.122,1.328,35.4-.636,14.791-2.571,28.508-5.064,46.245-3.843a161.31,161.31,0,0,1,24.454,3.7l.643.141c24.722,5.651,50.419,5.043,71.341-12.008C532.214,129.334,533.626,103.2,521.618,85.54Z" transform="translate(-304.214 -33.921)" fill="#f29746"/>
        </g>
        <g id="Amarillo" transform="translate(30.145 280.016)">
          <path id="Trazado_21" data-name="Trazado 21" d="M350.142,444.763a98.836,98.836,0,0,0-29.928-13.421q-.53,2.119-1.151,4.238c-.452,1.511-.961,2.995-1.533,4.436a53.42,53.42,0,0,1,15.66,7.572c23.5,17.4,27.067,45.376,13.421,63.571-12.714,16.952-40.431,23.38-72.048,19.071-31.079-4.238-50.857-9.183-74.167-7.063-21.4,1.942-35.318,10.6-41.675,14.127-15.024,8.349-36.024,6.357-26.135-16.952,7.544-17.779,48.286-45.546,81.3-63.67,3.687-2.02,7.283-3.927,10.722-5.651,7.431-3.8,14.127-6.915,19.58-9.055,15.582-6.152,36.638-8.01,55.3-5.728a58.789,58.789,0,0,0,3.15-8.109c-19.6-2.119-41.159.106-63.395,6.774-7.579,2.274-15.066,4.888-22.42,7.77q-5.276,2.063-10.447,4.3c-30.2,13.046-57.292,30.147-76.618,45.821C103.627,513.985,92.226,538,90.912,554.247c-2.119,26.135,12.008,30.373,29.667,25.428,22.031-6.167,46.054-25.746,73.46-36.024,16.952-6.357,31.786-7.064,65.69-2.826,31.666,3.956,81.23,4.945,104.54-17.659C382.635,505.346,380.516,465.247,350.142,444.763Z" transform="translate(-90.701 -427.354)" fill="#f2bc50"/>
        </g>
        <g id="Layer_2" transform="translate(3.732)">
          <path id="Trazado_22" data-name="Trazado 22" d="M283.327,103.036c2.825-14.127-12.008-9.889-19.778-4.238-8.716,6.357-19.778,19.071-17.659,37.437,2.119,18.259,13.851,30.641,24.722,33.2,12.008,2.825,16.952-.706,9.183-12.714-4.81-7.431-9.889-12.714-9.183-22.6S281.137,113.984,283.327,103.036Zm-6.357,53.682c4.944,7.064,2.119,12.714-7.063,6.357-9.522-6.6-14.833-14.127-16.953-28.96-1.7-11.909,4.944-24.722,14.127-30.373,6.195-3.814,12.714-4.238,9.889,4.944-3.284,10.673-8.476,14.127-9.183,24.016S271.891,149.471,276.97,156.718Z" transform="translate(-109.783 -49.301)" fill="#f2bc50"/>
          <path id="Trazado_23" data-name="Trazado 23" d="M94.059,504.978c-12.714-.707-25.125,5.6-32.492,17.659-7.77,12.714-9.889,24.722-7.063,33.9,2.508,8.158,9.839,9.281,14.833-.706,3.532-7.064,8.42-15.483,12.714-19.778a74.245,74.245,0,0,1,14.127-11.3C106.773,518.4,107.479,505.727,94.059,504.978Zm-1.413,19.071c-13.046,8.7-17.659,15.54-24.016,27.548-2.727,5.149-7.77,10.6-9.889,1.413-.657-2.825-.706-14.127,7.063-26.135,6.915-10.694,16.952-16.585,26.135-17.659C103.948,507.8,101.122,518.4,92.646,524.049Z" transform="translate(-53.308 -170.117)" fill="#235ba8"/>
          <path id="Trazado_24" data-name="Trazado 24" d="M306.758,608.624c-5.863-4.69-14.833-8.476-25.428-9.889s-31.164-1.462-38.143,10.6c-7.77,13.421,9.507,17.956,18.365,15.54,7.77-2.119,14.833-6.357,21.9-5.651s9.182,2.826,19.071,4.238C313.03,624.962,313.821,614.275,306.758,608.624Zm-5.651,11.3c-8.512-1.964-14.092-4.944-21.19-4.944a47.25,47.25,0,0,0-18.365,3.532c-8.6,3.221-22.956-.289-14.833-9.889,7.77-9.183,27.548-8.243,33.2-7.77,8.476.706,18.224,3.7,23.31,7.77C310.289,614.275,310.289,622.045,301.107,619.926Z" transform="translate(-108.491 -197.477)" fill="#dd5a57"/>
          <path id="Trazado_25" data-name="Trazado 25" d="M517.8,444.072C512.852,433.476,504.376,425,492.368,425c-12.714,0-13.781,11.648-7.063,18.365,3.532,3.532,4.944,4.945,6.357,12.008,1.279,6.357.283,13.88,7.064,21.9,7.77,9.183,17.857,6.866,21.9-2.825C524.154,465.968,522.741,454.667,517.8,444.072Zm-.706,30.373c-1.95,5.354-7.77,9.889-14.834,2.825-6.4-6.4-6.414-12.594-7.063-19.072-.706-7.063-2.119-10.6-8.476-18.365-2.861-3.532-3.532-12.714,7.064-9.182,8.066,2.691,14.127,9.182,19.071,18.365C518.4,459.307,519.916,466.675,517.09,474.445Z" transform="translate(-178.967 -146.647)" fill="#f29746"/>
          <ellipse id="Elipse_5" data-name="Elipse 5" cx="4.458" cy="4.118" rx="4.458" ry="4.118" transform="translate(85.104 83.261) rotate(-75.548)" fill="none" stroke="#f29746" stroke-miterlimit="10" stroke-width="3.005"/>
          <ellipse id="Elipse_6" data-name="Elipse 6" cx="6.894" cy="7.473" rx="6.894" ry="7.473" transform="matrix(0.992, -0.128, 0.128, 0.992, 109.37, 72.639)" fill="none" stroke="#dd5a57" stroke-miterlimit="10" stroke-width="5"/>
          <ellipse id="Elipse_7" data-name="Elipse 7" cx="5.368" cy="4.952" rx="5.368" ry="4.952" transform="matrix(0.984, -0.176, 0.176, 0.984, 99.46, 102.304)" fill="none" stroke="#235ba8" stroke-miterlimit="10" stroke-width="4"/>
          <ellipse id="Elipse_8" data-name="Elipse 8" cx="4.026" cy="3.857" rx="4.026" ry="3.857" transform="translate(350.879 151.049) rotate(-75.31)" fill="none" stroke="#235ba8" stroke-miterlimit="10" stroke-width="3"/>
          <ellipse id="Elipse_9" data-name="Elipse 9" cx="6.513" cy="5.651" rx="6.513" ry="5.651" transform="matrix(0.992, -0.128, 0.128, 0.992, 374.968, 134.253)" fill="none" stroke="#f2bc50" stroke-miterlimit="10" stroke-width="5"/>
          <ellipse id="Elipse_10" data-name="Elipse 10" cx="5.22" cy="4.295" rx="5.22" ry="4.295" transform="matrix(0.984, -0.176, 0.176, 0.984, 364.568, 157.998)" fill="none" stroke="#dd5a57" stroke-miterlimit="10" stroke-width="4"/>
          <ellipse id="Elipse_11" data-name="Elipse 11" cx="5.22" cy="4.295" rx="5.22" ry="4.295" transform="matrix(0.984, -0.176, 0.176, 0.984, 94.033, 429.228)" fill="none" stroke="#dd5a57" stroke-miterlimit="10" stroke-width="4"/>
          <ellipse id="Elipse_12" data-name="Elipse 12" cx="6.01" cy="5.316" rx="6.01" ry="5.316" transform="translate(115.785 445.273) rotate(-29.887)" fill="none" stroke="#f29746" stroke-miterlimit="10" stroke-width="4.014"/>
          <ellipse id="Elipse_13" data-name="Elipse 13" cx="6.71" cy="7.417" rx="6.71" ry="7.417" transform="translate(365.525 331.4) rotate(-69.11)" fill="none" stroke="#235ba8" stroke-miterlimit="10" stroke-width="5"/>
          <ellipse id="Elipse_14" data-name="Elipse 14" cx="4.238" cy="3.885" rx="4.238" ry="3.885" transform="translate(399.929 321.087)" fill="none" stroke="#f2bc50" stroke-miterlimit="10" stroke-width="5"/>
          <ellipse id="Elipse_15" data-name="Elipse 15" cx="6.357" cy="5.298" rx="6.357" ry="5.298" transform="translate(392.482 346.169) rotate(-30)" fill="none" stroke="#dd5a57" stroke-miterlimit="10" stroke-width="4"/>
          <path id="Trazado_26" data-name="Trazado 26" d="M159.2,205.636a33.064,33.064,0,0,0-9.458-14.911c-15-13.541-39.725-10.694-55.1,6.357a44.436,44.436,0,0,0-11.761,28.833,38.964,38.964,0,0,0,.487,6.844q2.161-1.738,4.485-3.391c0-.636-.042-1.278,0-1.928a38.058,38.058,0,0,1,10.08-24.694c7.629-8.413,17.793-12.82,27.406-12.82a27.547,27.547,0,0,1,18.725,6.958,26.5,26.5,0,0,1,6.767,9.635,30.416,30.416,0,0,1,2.211,12.17,35.166,35.166,0,0,1-.29,3.85,38.68,38.68,0,0,1-9.832,20.837,38.143,38.143,0,0,1-23.521,12.594,28.288,28.288,0,0,1-21.5-5.757,43.2,43.2,0,0,0-2.536,3.567,33.9,33.9,0,0,0,21.5,7.381,39.687,39.687,0,0,0,4.722-.282,44.436,44.436,0,0,0,27.48-14.65,44.973,44.973,0,0,0,11.506-24.955c.148-1.286.233-2.578.254-3.871A37.438,37.438,0,0,0,159.2,205.636Z" transform="translate(-61.993 -75.34)" fill="#f2bc50"/>
          <path id="Trazado_27" data-name="Trazado 27" d="M587.841,48.637c-9.055-17.235-32.407-22.865-52.065-12.545a45.572,45.572,0,0,0-11.139,8.165,41.317,41.317,0,0,0-9.183,14.014q-.664,1.723-1.165,3.461A32.563,32.563,0,0,0,516.5,86.074c5.983,11.386,18.209,17.708,31.489,17.708a44.386,44.386,0,0,0,20.576-5.163,45.713,45.713,0,0,0,4.613-2.825,39.619,39.619,0,0,0-2.289-3.362,36.68,36.68,0,0,0-2.776-3.193,39.658,39.658,0,0,1-3.885,2.345c-16.557,8.688-36.059,4.238-43.49-9.889A26.135,26.135,0,0,1,518.7,63.047a32.472,32.472,0,0,1,1.229-3.885,35.276,35.276,0,0,1,9.084-13.067,39.557,39.557,0,0,1,8.271-5.792,38.086,38.086,0,0,1,17.659-4.45c10.97,0,20.972,5.093,25.824,14.325,3.532,6.774,3.843,14.777.805,22.533a33.834,33.834,0,0,1-3.2,6.166,59.43,59.43,0,0,1,4.521,5.785c.269.388.516.791.77,1.187a40.608,40.608,0,0,0,5.248-9.409C592.63,66.939,592.241,57.064,587.841,48.637Z" transform="translate(-188.265 -30.927)" fill="#dd5a57"/>
          <path id="Trazado_28" data-name="Trazado 28" d="M582.175,282a37.283,37.283,0,0,0-36.864,33.41c2.571.537,5.206,1.045,7.9,1.5A30.751,30.751,0,1,1,593.97,350.8a30.212,30.212,0,0,1-10.383,1.836,30.867,30.867,0,0,1-30.3-25.937c-2.67-.706-5.283-1.483-7.862-2.253a37.244,37.244,0,0,0,36.744,32.428,36.67,36.67,0,0,0,12.3-2.119A37.488,37.488,0,0,0,582.175,282Z" transform="translate(-197.785 -104.655)" fill="#f29746"/>
          <path id="Trazado_29" data-name="Trazado 29" d="M448.052,555.829A37.44,37.44,0,0,0,430.8,543.115,47.953,47.953,0,0,0,413.738,540c-18.86,0-34.668,10.546-38.6,24.6,2.776,0,5.5-.035,8.165-.191,3.023-11.485,16.472-20.173,32.556-20.173a42.338,42.338,0,0,1,12.608,1.886c7.431,2.31,13.52,6.6,17.094,12.008a20.118,20.118,0,0,1,3.5,11.182c0,13.83-14.89,25.075-33.2,25.075-15.229,0-28.092-7.77-31.983-18.365-3.1.092-6.195.113-9.253.078,2.825,15.13,19.3,26.771,39.118,26.771,21.812,0,39.555-14.127,39.555-31.433A26.487,26.487,0,0,0,448.052,555.829Z" transform="translate(-147.662 -180.417)" fill="#235ba8"/>
        </g>
      </g>
      <g id="Logo" transform="translate(122.02 157.232)">
        <path id="Trazado_14" data-name="Trazado 14" d="M943.823,394.935c-39.841,22.649-37.659,58.125-24.014,55.4,6.28-1.256,20.575-7.423,23.65-1.274,5.279,10.558-26.09,27.547-31.986,30.624a2.616,2.616,0,0,0-1.277,1.5l-9.609,29.337a.5.5,0,0,0,.667.611c47.228-19.659,74.329-43.449,72.951-68.08-1.069-19.1-28.068-13.168-33.133-12.621-6.959.75-3.138-9.142,6.754-14.258,16.646-8.61,23.7.091,23.7.091s6.387-11.235,8.164-21.922S964.433,383.743,943.823,394.935Z" transform="translate(-900.562 -332.196)" fill="#fff"/>
        <path id="Trazado_15" data-name="Trazado 15" d="M1027.178,406.042c-1.3,19.153-2.911,50.757-2.911,50.757s20.922,1.228,22.832-22.786c1.716-21.563,5.321-57.057,5.321-57.057S1029.224,375.887,1027.178,406.042Z" transform="translate(-943.258 -329.135)" fill="#fff"/>
        <path id="Trazado_16" data-name="Trazado 16" d="M1118.543,373.764c7.732-17.989,3.083-22.264-1.364-22.553-17.919-1.163-34.566,11.411-39.993,29.444-4.605,15.3-5.625,34.052-.758,41.615,6.948,10.8,27.931,4.343,37.295-6.713,6.055-7.148,5.169-16.141,3.548-22.362-.342-1.309-1-.661-1.3-.369-23.011,23.021-27.109,10.083-22.65-2.081C1102.058,366.918,1118.543,373.764,1118.543,373.764Z" transform="translate(-960.082 -320.208)" fill="#fff"/>
        <path id="Trazado_17" data-name="Trazado 17" d="M1237.88,303.967c-26.743-2.32-46.527,27.7-46.527,27.7L1178.8,346.947l3.07-24.014s-25.219-1.41-27.13,30.245c-1.684,27.913-1.82,40.8-1.82,40.8s20.831.046,23.014-19.057c.367-3.212.546-5.595.546-5.595a96.973,96.973,0,0,0,14.827,4.048c9.733,1.819,17.647-1,20.831-4.912S1216.595,358,1216.595,358l-24.014-2.593Z" transform="translate(-987.311 -303.84)" fill="#fff"/>
      </g>
    </g>
  </g>
</svg>
