<svg id="Logo" xmlns="http://www.w3.org/2000/svg" width="385" height="275" viewBox="0 0 385 275">
  <path id="Trazado_14" data-name="Trazado 14" d="M967.032,399.5c-61.217,34.8-57.863,89.31-36.9,85.117,9.65-1.93,31.614-11.406,36.339-1.957,8.111,16.222-40.088,42.327-49.146,47.054a4.019,4.019,0,0,0-1.962,2.312L900.6,577.1a.766.766,0,0,0,1.024.939c72.566-30.207,114.207-66.76,112.089-104.6-1.642-29.351-43.127-20.232-50.91-19.393-10.692,1.153-4.821-14.046,10.378-21.908,25.576-13.229,36.409.14,36.409.14s9.813-17.262,12.544-33.684S998.7,382.3,967.032,399.5Z" transform="translate(-900.562 -303.097)" fill="#fff"/>
  <path id="Trazado_15" data-name="Trazado 15" d="M1028.739,421.649c-2,29.429-4.473,77.989-4.473,77.989s32.146,1.887,35.081-35.011c2.636-33.132,8.177-87.668,8.177-87.668S1031.884,375.316,1028.739,421.649Z" transform="translate(-899.797 -303.481)" fill="#fff"/>
  <path id="Trazado_16" data-name="Trazado 16" d="M1142.857,385.9c11.88-27.64,4.737-34.209-2.1-34.653-27.534-1.787-53.111,17.533-61.45,45.241-7.076,23.51-8.643,52.322-1.165,63.942,10.676,16.59,42.916,6.673,57.3-10.314,9.3-10.983,7.942-24.8,5.451-34.36-.525-2.011-1.543-1.016-1.992-.567-35.357,35.372-41.653,15.492-34.8-3.2C1117.528,375.385,1142.857,385.9,1142.857,385.9Z" transform="translate(-899.38 -303.615)" fill="#fff"/>
  <path id="Trazado_17" data-name="Trazado 17" d="M1283.461,304.036c-41.091-3.564-71.49,42.559-71.49,42.559l-19.287,23.48,4.717-36.9s-38.75-2.166-41.685,46.472c-2.588,42.888-2.8,62.685-2.8,62.685s32.007.07,35.361-29.281c.564-4.935.839-8.6.839-8.6a149.019,149.019,0,0,0,22.781,6.22c14.955,2.795,27.115-1.537,32.007-7.547s6.848-16.073,6.848-16.073l-36.9-3.984Z" transform="translate(-898.461 -303.84)" fill="#fff"/>
</svg>
