<svg xmlns="http://www.w3.org/2000/svg" width="83.119" height="59.535" viewBox="0 0 83.119 59.535">
  <g id="Sick" transform="translate(0)">
    <path id="Trazado_10" data-name="Trazado 10" d="M1600.116,299.831c-13.289,7.555-12.561,19.387-8.01,18.477,2.095-.419,6.863-2.476,7.888-.425,1.761,3.521-8.7,9.188-10.668,10.214a.872.872,0,0,0-.426.5l-3.2,9.785a.166.166,0,0,0,.222.2c15.752-6.557,24.792-14.492,24.332-22.707-.356-6.371-9.362-4.392-11.052-4.21-2.321.25-1.046-3.049,2.253-4.756,5.552-2.872,7.9.03,7.9.03a26.212,26.212,0,0,0,2.723-7.312C1612.669,296.07,1606.991,296.1,1600.116,299.831Z" transform="translate(-1585.687 -279.067)" fill="#dd5957"/>
    <path id="Trazado_11" data-name="Trazado 11" d="M1710.362,297.216c-.434,6.389-.971,16.93-.971,16.93s6.978.41,7.615-7.6c.572-7.192,1.775-19.031,1.775-19.031S1711.045,287.159,1710.362,297.216Z" transform="translate(-1682.538 -271.643)" fill="#dd5957"/>
    <path id="Trazado_12" data-name="Trazado 12" d="M1773.464,269.246c2.579-6,1.028-7.426-.455-7.522-5.977-.388-11.529,3.806-13.339,9.821-1.536,5.1-1.876,11.358-.253,13.88,2.318,3.6,9.316,1.449,12.439-2.239,2.019-2.384,1.724-5.384,1.183-7.459-.114-.437-.335-.221-.432-.123-7.675,7.678-9.042,3.363-7.555-.694C1767.966,266.963,1773.464,269.246,1773.464,269.246Z" transform="translate(-1720.867 -251.432)" fill="#dd5957"/>
    <path id="Trazado_13" data-name="Trazado 13" d="M1866.383,214.445c-8.92-.774-15.519,9.238-15.519,9.238l-4.187,5.1,1.024-8.01s-8.412-.47-9.049,10.088c-.562,9.31-.607,13.607-.607,13.607s6.948.015,7.676-6.356c.122-1.071.182-1.866.182-1.866a32.35,32.35,0,0,0,4.945,1.35c3.246.607,5.886-.334,6.948-1.638a9.349,9.349,0,0,0,1.487-3.489l-8.01-.865Z" transform="translate(-1783.264 -214.402)" fill="#dd5957"/>
  </g>
</svg>
