<svg xmlns="http://www.w3.org/2000/svg" width="45" height="45" viewBox="0 0 45 45">
  <path id="Telefono_Bt" d="M-74.706,830.017c-.564-7.6-4.795-11.661-9.786-12.813-7.764-1.793-19.253-.73-24.278.255-5.364,1.052-8.94,6.12-9.881,12.048-.659,4.152-1.223,8.064-.471,17.052.532,6.344,2.675,9.579,9.6,11.953a45.932,45.932,0,0,0,18.867,2.63c8.61-.438,12.1-3.877,13.974-10.041A55.251,55.251,0,0,0-74.706,830.017Zm-10.968,18.662c-.455.775-1.037,2.122-4.449,2.738-3.944.71-11.179-1.158-14.471-5.9a17.145,17.145,0,0,1-3.024-12.433,9.3,9.3,0,0,1,3.35-5.149,1.844,1.844,0,0,1,2.626.094,19.472,19.472,0,0,1,2.682,4.251,2.317,2.317,0,0,1-.757,2.575,13.168,13.168,0,0,0-1.368,1.328c-.52.579-.806,3.213.651,5.716a6.7,6.7,0,0,0,5.174,3.365,4.957,4.957,0,0,0,2.761-1.484,2.907,2.907,0,0,1,3.82-.184,13.7,13.7,0,0,1,2.264,1.9A2.581,2.581,0,0,1-85.674,848.679Z" transform="translate(119.481 -816.235)" fill="#dd5957"/>
</svg>
