<svg xmlns="http://www.w3.org/2000/svg" width="45" height="45" viewBox="0 0 45 45">
  <g id="Video_Bt" transform="translate(-0.5 0)">
    <path id="Trazado_30" data-name="Trazado 30" d="M1546.521,900.547c-1.324-6.184-4.926-9.026-12.176-10.505-6.379-1.3-16.276-.966-22.029.832-6.507,2.033-10.039,4.99-10.039,12.568a90.622,90.622,0,0,0,2.045,20.609c1.32,6.461,4.276,8.779,9.2,9.518a70.786,70.786,0,0,0,21.472-.277c6.924-1.294,9.6-4.505,10.782-9.981C1546.638,919.338,1548.224,908.5,1546.521,900.547ZM1534.932,914.7c-1.733,1.723-9.924,6.539-13.241,7.669-1.936.66-2.906.769-3.435-1.361a92.24,92.24,0,0,1-1.2-15.612c.184-2.473,1.756-2.793,3.42-2.247,2.741.9,12.45,6.164,14.387,7.582C1536.539,911.961,1536.5,913.147,1534.932,914.7Z" transform="translate(-1501.777 -889.255)" fill="#dd5957"/>
  </g>
</svg>
