<svg id="Whatsapp_Bt" xmlns="http://www.w3.org/2000/svg" width="45" height="45" viewBox="0 0 45 45">
  <path id="Trazado_8" data-name="Trazado 8" d="M-98.259,757.673a10.942,10.942,0,0,0-7.858,6.39,10.891,10.891,0,0,0,.77,10.053,2.1,2.1,0,0,1,.2,2.009c-.248.653-.465,1.318-.7,2.034a.2.2,0,0,0,.051.211.2.2,0,0,0,.21.051c.848-.276,1.554-.5,2.292-.678a3.042,3.042,0,0,1,.7-.079,2.442,2.442,0,0,1,1.113.242,10.749,10.749,0,0,0,10.712.026h0a10.9,10.9,0,0,0,4.926-13.392A10.872,10.872,0,0,0-98.259,757.673Zm8.605,16.43a4,4,0,0,1-3.474,1,11.062,11.062,0,0,1-9.609-8.243c-.456-1.8-.472-3.107.826-4.467a2.952,2.952,0,0,1,1.427-.863,1.059,1.059,0,0,1,1.332.844,8.783,8.783,0,0,0,.478,1.385c.564,1.117.658,2.123-.453,3.005a.911.911,0,0,0-.083.853,9.489,9.489,0,0,0,4.421,4.174c.625.3.909-.08,1.25-.46,1.148-1.281,1.151-1.278,2.675-.478.265.139.532.275.8.415A1.606,1.606,0,0,1-89.654,774.1Z" transform="translate(119.481 -745.791)" fill="#dd5957"/>
  <path id="Trazado_9" data-name="Trazado 9" d="M-75.3,757.68c-.849-6.756-4.25-8.777-9.226-9.911-7.74-1.765-16.2-2.509-23.142-1.568a12.761,12.761,0,0,0-10.7,10.914,64.752,64.752,0,0,0-.563,20.042c.938,6.369,3.949,12.137,11.165,13.142,6.755.941,19.305.608,24.956-1.662,6.286-2.525,7.886-5.64,8.163-11.982A97.975,97.975,0,0,0-75.3,757.68Zm-10.726,21.75c-4.03,3.349-10.535,4.122-15.821,1.878a2.411,2.411,0,0,0-1.91-.093c-1.444.5-2.9.956-4.423,1.434l-.582.184a1.209,1.209,0,0,1-.365.056,1.2,1.2,0,0,1-.86-.364,1.2,1.2,0,0,1-.281-1.231l.152-.451c.56-1.655,1.09-3.217,1.577-4.8a1.592,1.592,0,0,0-.092-1.01c-2.816-5.9-2.59-11.281.655-15.555A14.864,14.864,0,0,1-92.621,754.1,14.445,14.445,0,0,1-81.62,766C-80.716,771.548-82.281,776.316-86.029,779.43Z" transform="translate(119.481 -745.791)" fill="#dd5957"/>
</svg>
